<svg width="32" height="32" viewBox="0 0 32 32" fill="none" xmlns="http://www.w3.org/2000/svg">
    <g clip-path="url(#clip0_105_2)">
        <path d="M16 0.5C24.5614 0.5 31.5 7.43864 31.5 16C31.5 24.5614 24.5614 31.5 16 31.5C7.43877 31.5 0.5 24.5552 0.5 16C0.5 7.43864 7.43864 0.5 16 0.5Z" fill="#E5E4DF" stroke="#8B919B"/>
        <path d="M16 5C22.075 5 27 9.925 27 16C27 22.075 22.075 27 16 27C9.925 27 5 22.075 5 16C5 9.925 9.925 5 16 5Z" fill="#00B1FF"/>
        <path d="M16 10C19.3125 10 22 12.6875 22 16C22 19.3125 19.3125 22 16 22C12.6875 22 10 19.3125 10 16C10 12.6875 12.6875 10 16 10Z" fill="#2B3B47"/>
        <path d="M20.4938 10C21.875 10 22.9938 11.1187 22.9938 12.5C22.9938 13.8813 21.875 15 20.4938 15C19.1125 15 17.9938 13.8813 17.9938 12.5C17.9938 11.1187 19.1188 10 20.4938 10Z" fill="#D4EDF6"/>
        <path d="M21.825 14.6062C21.4188 12.9 20.2938 11.4812 18.7813 10.6875C18.3 11.1438 17.9938 11.7812 17.9938 12.5C17.9938 13.8813 19.1125 15 20.4938 15C20.9875 14.9937 21.4438 14.85 21.825 14.6062Z" fill="#D6DBDE"/>
    </g>
    <defs>
        <clipPath id="clip0_105_2">
            <rect width="32" height="32" fill="white"/>
        </clipPath>
    </defs>
</svg>
