<svg width="48" height="48" viewBox="0 0 48 48" fill="none" xmlns="http://www.w3.org/2000/svg">
<path d="M35.004 24.066L26.522 19.15L30.798 8.88801C30.9472 8.58322 31.0167 8.24555 30.9999 7.90662C30.9831 7.56768 30.8806 7.23854 30.7019 6.95001C30.5233 6.66148 30.2744 6.42298 29.9785 6.25683C29.6826 6.09068 29.3494 6.00232 29.01 6.00001C28.559 5.99893 28.1208 6.1497 27.766 6.42801L27.626 6.54801L12.626 20.748C12.4005 20.9621 12.228 21.2258 12.122 21.5182C12.016 21.8106 11.9795 22.1236 12.0154 22.4325C12.0513 22.7414 12.1586 23.0377 12.3288 23.2979C12.499 23.5582 12.7274 23.7753 12.996 23.932L21.48 28.852L17.154 39.232C16.9756 39.6554 16.9485 40.1274 17.0774 40.5684C17.2063 41.0094 17.4832 41.3925 17.8616 41.6532C18.2399 41.9139 18.6966 42.0362 19.1546 41.9996C19.6126 41.9629 20.0439 41.7695 20.376 41.452L35.376 27.248C35.601 27.0337 35.7731 26.77 35.8787 26.4778C35.9843 26.1856 36.0205 25.8728 35.9844 25.5641C35.9483 25.2555 35.8409 24.9595 35.6708 24.6995C35.5007 24.4395 35.2724 24.2226 35.004 24.066Z" fill="black"/>
</svg>
